<svg id="SvgjsSvg1024" width="288" height="288" xmlns="http://www.w3.org/2000/svg" version="1.1" xmlns:xlink="http://www.w3.org/1999/xlink" xmlns:svgjs="http://svgjs.com/svgjs"><defs id="SvgjsDefs1025"></defs><g id="SvgjsG1026"><svg xmlns="http://www.w3.org/2000/svg" enable-background="new 0 0 496.014 496.014" viewBox="0 0 496.014 496.014" width="288" height="288"><path d="M488.007,348.111V51.903c8.819-6.585,10.63-19.072,4.046-27.891c-3.778-5.06-9.731-8.03-16.046-8.005h-456
			C9.001,15.964,0.044,24.851,0.001,35.857c-0.025,6.315,2.945,12.268,8.005,16.046v296.208c-8.819,6.585-10.63,19.072-4.046,27.891
			c3.778,5.06,9.731,8.03,16.046,8.005h98.112l-51.928,51.864c-9.376,9.378-9.374,24.58,0.004,33.956
			c9.378,9.376,24.58,9.374,33.956-0.004l84.8-84.88c0.243-0.294,0.462-0.607,0.656-0.936h38.4v72c0,13.255,10.745,24,24,24
			c13.255,0,24-10.745,24-24v-72h38.44c0.181,0.327,0.387,0.64,0.616,0.936l84.8,84.88c9.378,9.376,24.58,9.374,33.956-0.004
			c9.376-9.378,9.374-24.58-0.004-33.956l-51.92-51.856h98.112c11.006,0.043,19.963-8.844,20.005-19.85
			C496.037,357.842,493.067,351.889,488.007,348.111z M88.807,458.511c-3.177,3.007-8.151,3.007-11.328,0
			c-3.126-3.122-3.129-8.188-0.006-11.314c0.002-0.002,0.004-0.004,0.006-0.006l63.28-63.184h22.504L88.807,458.511z
			 M256.007,456.007c0,4.418-3.582,8-8,8s-8-3.582-8-8v-72h16V456.007z M418.511,447.207c3.128,3.12,3.135,8.186,0.014,11.314
			c-0.005,0.005-0.01,0.01-0.014,0.014c-3.175,3.006-8.145,3.006-11.32,0l-74.44-74.528h22.504L418.511,447.207z M476.007,368.007
			h-456c-2.209,0-4-1.791-4-4c0-2.209,1.791-4,4-4h456c2.209,0,4,1.791,4,4C480.007,366.216,478.216,368.007,476.007,368.007z
			 M24.007,344.007v-288h448v288H24.007z M476.007,40.007h-456c-2.209,0-4-1.791-4-4s1.791-4,4-4h456c2.209,0,4,1.791,4,4
			S478.216,40.007,476.007,40.007z" fill="#ffffff" class="color000 svgShape"></path></svg></g></svg>