<svg id="Filled" height="512" viewBox="0 0 512 512" width="512" xmlns="http://www.w3.org/2000/svg"><path d="m352 104v288a32 32 0 0 1 -32 32h-256a32 32 0 0 1 -32-32v-336a32 32 0 0 1 32-32h208z" fill="#e9eef2"/><path d="m352 104h-48a32 32 0 0 1 -32-32v-48z" fill="#c3c6c7"/><path d="m352 488-128-112h64v-112h128v112h64z" fill="#f79539"/><path d="m64 432h211.851l70.881 62.021a8 8 0 0 0 10.536 0l128-112a8 8 0 0 0 -5.268-14.021h-56v-104a8 8 0 0 0 -8-8h-56v-152a8 8 0 0 0 -2.343-5.657l-80-80a8 8 0 0 0 -5.657-2.343h-208a40.045 40.045 0 0 0 -40 40v336a40.045 40.045 0 0 0 40 40zm344-160v104a8 8 0 0 0 8 8h42.708l-106.708 93.37-106.708-93.37h42.708a8 8 0 0 0 8-8v-104zm-128-228.687 52.687 52.687h-28.687a24.027 24.027 0 0 1 -24-24zm-240 12.687a24.027 24.027 0 0 1 24-24h200v40a40.045 40.045 0 0 0 40 40h40v144h-56a8 8 0 0 0 -8 8v104h-56a8 8 0 0 0 -5.268 14.021l38.834 33.979h-193.566a24.027 24.027 0 0 1 -24-24z"/><path d="m152 152a8 8 0 0 0 8 8h144a8 8 0 0 0 0-16h-144a8 8 0 0 0 -8 8z"/><path d="m80 208h128a8 8 0 0 0 0-16h-128a8 8 0 0 0 0 16z"/><path d="m80 304h144a8 8 0 0 0 0-16h-144a8 8 0 0 0 0 16z"/><path d="m80 160h48a8 8 0 0 0 0-16h-48a8 8 0 0 0 0 16z"/><path d="m304 192h-64a8 8 0 0 0 0 16h64a8 8 0 0 0 0-16z"/><path d="m80 256h96a8 8 0 0 0 0-16h-96a8 8 0 0 0 0 16z"/><path d="m80 112h96a8 8 0 0 0 0-16h-96a8 8 0 0 0 0 16z"/><path d="m240 240h-32a8 8 0 0 0 0 16h32a8 8 0 0 0 0-16z"/><path d="m80 352h48a8 8 0 0 0 0-16h-48a8 8 0 0 0 0 16z"/><path d="m192 336h-32a8 8 0 0 0 0 16h32a8 8 0 0 0 0-16z"/></svg>