<?xml version="1.0" encoding="iso-8859-1"?>
<!-- Generator: Adobe Illustrator 19.0.0, SVG Export Plug-In . SVG Version: 6.00 Build 0)  -->
<svg version="1.1" id="Capa_1" xmlns="http://www.w3.org/2000/svg" xmlns:xlink="http://www.w3.org/1999/xlink" x="0px" y="0px"
	 viewBox="0 0 512 512" style="enable-background:new 0 0 512 512;" xml:space="preserve">
<path style="fill:#EDE9E8;" d="M511.701,150.824v315.631c0,24.87-20.078,44.947-44.947,44.947H45.247
	c-24.872,0-44.947-20.078-44.947-44.947V150.824l46.446-29.965h409.821L511.701,150.824z"/>
<path style="fill:#DFD7D5;" d="M511.701,150.824v315.631c0,24.87-20.078,44.947-44.947,44.947H256V120.859h200.564L511.701,150.824z
	"/>
<g>
	<path style="fill:#D2C5C2;" d="M166.105,300.648h-59.93c-8.281,0-14.982-6.701-14.982-14.982v-59.93
		c0-8.281,6.701-14.982,14.982-14.982h59.93c8.281,0,14.982,6.701,14.982,14.982v59.93
		C181.088,293.947,174.386,300.648,166.105,300.648z"/>
	<path style="fill:#D2C5C2;" d="M166.105,421.507h-59.93c-8.281,0-14.982-6.701-14.982-14.982v-59.93
		c0-8.281,6.701-14.982,14.982-14.982h59.93c8.281,0,14.982,6.701,14.982,14.982v59.93
		C181.088,414.806,174.386,421.507,166.105,421.507z"/>
	<path style="fill:#D2C5C2;" d="M285.965,210.753h-60.929c-8.391,0-14.982,6.591-14.982,14.982v59.93
		c0,8.389,6.591,14.982,14.982,14.982h60.929c8.391,0,15.981-6.593,15.981-14.982v-59.93
		C301.946,217.345,294.356,210.753,285.965,210.753z"/>
	<path style="fill:#D2C5C2;" d="M285.965,331.612h-60.929c-8.391,0-14.982,6.591-14.982,14.982v59.93
		c0,8.389,6.591,14.982,14.982,14.982h60.929c8.391,0,15.981-6.593,15.981-14.982v-59.93
		C301.946,338.203,294.356,331.612,285.965,331.612z"/>
</g>
<g>
	<path style="fill:#C4B3AF;" d="M407.822,300.648h-59.93c-8.281,0-14.982-6.701-14.982-14.982v-59.93
		c0-8.281,6.701-14.982,14.982-14.982h59.93c8.281,0,14.982,6.701,14.982,14.982v59.93
		C422.805,293.947,416.104,300.648,407.822,300.648z"/>
	<path style="fill:#C4B3AF;" d="M511.701,361.577H376.259c-8.391,0-14.982,6.591-14.982,14.982V512L511.701,361.577z"/>
	<path style="fill:#C4B3AF;" d="M301.946,225.736v59.93c0,8.389-7.59,14.982-15.981,14.982H256.6v-89.895h29.365
		C294.356,210.753,301.946,217.345,301.946,225.736z"/>
	<path style="fill:#C4B3AF;" d="M301.946,346.595v59.93c0,8.389-7.59,14.982-15.981,14.982H256.6v-89.895h29.365
		C294.356,331.612,301.946,338.203,301.946,346.595z"/>
</g>
<path style="fill:#FF3636;" d="M466.753,30.964H45.247c-24.872,0-44.947,20.076-44.947,44.947v74.912h511.402V75.911
	C511.701,51.039,491.623,30.964,466.753,30.964z"/>
<path style="fill:#F40000;" d="M511.701,75.911v74.912H256V30.964h210.753C491.623,30.964,511.701,51.039,511.701,75.911z"/>
<g>
	<path style="fill:#68544F;" d="M77.209,90.894c-8.281,0-14.982-6.701-14.982-14.982V14.982C62.227,6.701,68.928,0,77.209,0
		s14.982,6.701,14.982,14.982v60.929C92.192,84.193,85.49,90.894,77.209,90.894z"/>
	<path style="fill:#68544F;" d="M197.069,90.894c-8.281,0-14.982-6.701-14.982-14.982V14.982C182.086,6.701,188.788,0,197.069,0
		s14.982,6.701,14.982,14.982v60.929C212.051,84.193,205.35,90.894,197.069,90.894z"/>
</g>
<g>
	<path style="fill:#53433F;" d="M318.926,90.894c-8.281,0-14.982-6.701-14.982-14.982V14.982C303.944,6.701,310.645,0,318.926,0
		c8.281,0,14.982,6.701,14.982,14.982v60.929C333.909,84.193,327.208,90.894,318.926,90.894z"/>
	<path style="fill:#53433F;" d="M438.786,90.894c-8.281,0-14.982-6.701-14.982-14.982V14.982C423.804,6.701,430.505,0,438.786,0
		c8.281,0,14.982,6.701,14.982,14.982v60.929C453.769,84.193,447.067,90.894,438.786,90.894z"/>
</g>
<g>
</g>
<g>
</g>
<g>
</g>
<g>
</g>
<g>
</g>
<g>
</g>
<g>
</g>
<g>
</g>
<g>
</g>
<g>
</g>
<g>
</g>
<g>
</g>
<g>
</g>
<g>
</g>
<g>
</g>
</svg>
